<svg xmlns="http://www.w3.org/2000/svg" viewBox="0 0 460.63 511.65"><defs><style>.cls-1{fill:#e87042;}</style></defs><g id="Layer_2" data-name="Layer 2"><g id="Layer_1-2" data-name="Layer 1"><path class="cls-1" d="M59.54,147.93c4.52,1.6,9.13,3,13.55,4.87,7.68,3.27,15.27,6.76,22.84,10.32,9.23,4.35,18.45,8.76,27.58,13.35,8.88,4.46,17.71,9,26.42,13.84q15.12,8.34,30,17.19,17.64,10.53,35,21.55c10.36,6.62,20.63,13.41,30.72,20.49,11.73,8.24,23.37,16.63,34.76,25.39,21,16.14,41.81,32.56,60.06,52.19,9.75,10.49,18.68,21.9,27.63,33.21,7,8.9,7.56,18.76,2.93,29.36-4.19,9.62-7.39,19.73-11.56,29.36a153.53,153.53,0,0,1-37.8,52.84,150.35,150.35,0,0,1-49.55,30c-24.59,9.16-50.08,10.87-75.93,9.27a154.11,154.11,0,0,1-43.8-9.16c-23.19-8.5-43-22.43-58.42-43.16C83.44,444.66,73.62,430,66.91,413.5c-4-9.92-6.37-20.7-8.64-31.29-1.17-5.49.32-6.5,5.72-6.5,23.13,0,46.26.23,69.38-.19,5.81-.11,8.72,2.47,11.07,7.35,8.68,18.05,21.25,31.76,39,39.79,14.76,6.67,29.9,7.77,45.51,4.62,8.49-1.71,16.73-4,24.11-9,11.6-7.93,21-18.07,26.8-31.48A220.29,220.29,0,0,0,287.73,365a10.45,10.45,0,0,0-.42-7.16c-4-7.52-8.26-15-13-22a409.26,409.26,0,0,0-56-67.09q-24.08-23.16-49.65-44.54c-13.89-11.64-28.35-22.62-43.24-32.77-17-11.6-34.77-21.95-52.2-32.87-4.76-3-9.47-6.06-14.2-9.1Z"/><path class="cls-1" d="M412.82,466.42c2-5,4.34-9.92,6-15.06,4.65-14.09,6.22-28.39,3.56-43.34a140.45,140.45,0,0,0-16.64-44.88,246.28,246.28,0,0,0-30.45-41.82,427.92,427.92,0,0,0-50.21-48c-14.3-11.62-28.87-22.91-43.78-33.61-16.06-11.53-32.5-22.5-49.09-33.17-13.46-8.65-27.28-16.67-41.11-24.64q-22.59-13-45.49-25.4c-11.15-6-22.54-11.5-33.84-17.17-11.69-5.86-23.36-11.76-35.12-17.42-9.34-4.5-18.8-8.73-28.25-13q-16.49-7.38-33.06-14.56C10.26,92.2,5.1,90.1,0,86.83c2.43,0,5-.53,7.27.1,5.54,1.55,10.91,3.76,16.41,5.49,9.84,3.11,19.75,6,29.57,9.11s19.85,6.64,29.77,10c9,3,18,5.89,27,9,9.78,3.34,19.51,6.8,29.26,10.23,9.08,3.19,18.19,6.26,27.2,9.65,11.14,4.17,22.2,8.56,33.26,13,11.32,4.51,22.66,9,33.87,13.79,13.42,5.75,26.75,11.74,40.05,17.81,9.29,4.24,18.56,8.58,27.66,13.28,11,5.67,21.86,11.54,32.57,17.75,11.09,6.44,22.32,12.77,32.78,20.27,14.66,10.51,28.95,21.67,42.85,33.31a161.89,161.89,0,0,1,31,35.38c14.66,22.24,22.66,46.58,19.44,74a115.61,115.61,0,0,1-16.24,47.75c-7.34,11.85-15.44,23.17-23.34,34.61-1.69,2.45-4,4.42-6,6.61Z"/><path class="cls-1" d="M378.72,99.4q0,45.94,0,91.87a22.69,22.69,0,0,1-.2,3.59c-.52,3.32-1.95,4.82-5.27,3.1-8.95-4.65-17.87-9.4-27-13.71-10.27-4.86-20.69-9.34-31.09-13.86-6.37-2.77-12.89-5.15-19.2-8-1.24-.57-2.2-2.58-2.68-4.13a19,19,0,0,1-.38-5.35q0-59.9,0-119.79c0-6.8-.93-8.34,6.78-10.4,11.59-3.09,23-7,34.48-10.5C346.75,8.3,359.28,4.34,371.88.65c5.41-1.59,6.61-.44,6.62,5.54q0,46.61,0,93.21Z"/></g></g></svg>